HIERARCHY
ROOT Hips
{
	OFFSET 0.000000 0.000000 0.000000 
	CHANNELS 6 Xposition Yposition Zposition Zrotation Xrotation Yrotation
	JOINT Spine
	{
		OFFSET -0.000000 8.061080 0.000000 
		CHANNELS 3 Zrotation Xrotation Yrotation
		JOINT Spine1
		{
			OFFSET -0.000000 20.532677 0.000000 
			CHANNELS 3 Zrotation Xrotation Yrotation
			JOINT Neck
			{
				OFFSET -0.000000 22.498795 0.000000 
				CHANNELS 3 Zrotation Xrotation Yrotation
				JOINT Head
				{
					OFFSET -0.000000 15.237408 1.966117 
					CHANNELS 3 Zrotation Xrotation Yrotation
					End Site
					{
						OFFSET -0.000000 19.661171 0.000000 
					}
				}
			}
			JOINT LeftShoulder
			{
				OFFSET 3.894675 16.042269 -0.398189 
				CHANNELS 3 Zrotation Xrotation Yrotation
				JOINT LeftArm
				{
					OFFSET 19.709621 0.000000 0.000000 
					CHANNELS 3 Zrotation Xrotation Yrotation
					JOINT LeftForeArm
					{
						OFFSET 25.566900 0.000000 0.000000 
						CHANNELS 3 Zrotation Xrotation Yrotation
						JOINT LeftHand
						{
							OFFSET 25.401896 0.000000 0.000000 
							CHANNELS 3 Zrotation Xrotation Yrotation
							End Site
							{
								OFFSET 14.745877 0.000000 0.000000 
							}
						}
					}
				}
			}
			JOINT RightShoulder
			{
				OFFSET -3.930777 16.042269 -0.398189 
				CHANNELS 3 Zrotation Xrotation Yrotation
				JOINT RightArm
				{
					OFFSET -19.709621 0.000000 0.000000 
					CHANNELS 3 Zrotation Xrotation Yrotation
					JOINT RightForeArm
					{
						OFFSET -25.566900 0.000000 0.000000 
						CHANNELS 3 Zrotation Xrotation Yrotation
						JOINT RightHand
						{
							OFFSET -25.401896 0.000000 0.000000 
							CHANNELS 3 Zrotation Xrotation Yrotation
							End Site
							{
								OFFSET -14.745877 0.000000 0.000000 
							}
						}
					}
				}
			}
		}
	}
	JOINT LeftUpLeg
	{
		OFFSET 9.830585 0.000000 0.000000 
		CHANNELS 3 Zrotation Xrotation Yrotation
		JOINT LeftLeg
		{
			OFFSET -0.000000 -46.474842 0.000000 
			CHANNELS 3 Zrotation Xrotation Yrotation
			JOINT LeftFoot
			{
				OFFSET -0.000000 -30.290520 0.000000 
				CHANNELS 3 Zrotation Xrotation Yrotation
				JOINT LeftToeBase
				{
					OFFSET -0.000000 -6.389880 14.745877 
					CHANNELS 3 Zrotation Xrotation Yrotation
					End Site
					{
						OFFSET -0.000000 0.000000 3.932234 
					}
				}
			}
		}
	}
	JOINT RightUpLeg
	{
		OFFSET -9.830585 0.000000 0.000000 
		CHANNELS 3 Zrotation Xrotation Yrotation
		JOINT RightLeg
		{
			OFFSET -0.000000 -46.474842 0.000000 
			CHANNELS 3 Zrotation Xrotation Yrotation
			JOINT RightFoot
			{
				OFFSET -0.000000 -30.290520 0.000000 
				CHANNELS 3 Zrotation Xrotation Yrotation
				JOINT RightToeBase
				{
					OFFSET -0.000000 -6.389880 14.745877 
					CHANNELS 3 Zrotation Xrotation Yrotation
					End Site
					{
						OFFSET -0.000000 0.000000 3.932234 
					}
				}
			}
		}
	}
}
MOTION
Frames: 18
Frame Time: 0.010000
2.184100 85.099281 9.393309 -4.064387 6.274184 -0.220602 4.738319 -7.964422 1.579337 -1.104839 1.679811 0.429402 4.095688 7.814288 1.986956 -2.846319 8.345825 3.449638 3.938878 9.935263 -0.581626 -65.642555 31.799965 -24.836178 -14.031815 -6.400087 -3.746226 1.143226 -0.479554 7.332037 -8.781045 -0.896307 -0.431855 73.548347 65.864555 10.599698 -8.909784 -22.865324 1.973805 3.969936 -22.506109 6.787744 7.208834 -1.094370 3.002049 -3.610586 13.998734 2.368808 11.012068 -20.489752 -3.963831 0.000000 0.000000 0.000000 -25.258097 -23.524170 8.883142 3.428311 8.789877 0.038851 0.000000 0.000000 0.000000 0.000000 0.000000 0.000000 
1.836466 84.897774 9.711657 -4.028083 6.207875 -0.165944 4.755058 -7.872117 1.596694 -1.058294 1.635940 0.434971 4.195824 7.858894 1.995539 -2.965102 8.092521 3.497823 3.962790 9.997973 -0.678569 -65.506119 31.871349 -24.953979 -13.780684 -8.987161 -3.748596 0.274788 -0.592619 7.448601 -8.728682 -0.771953 -0.554363 72.857147 66.460129 11.149012 -9.087926 -23.181923 1.814303 3.995591 -22.832516 6.740642 7.425879 -1.072434 2.990398 -3.870252 14.658891 2.633530 11.169013 -21.499044 -4.033566 0.000000 0.000000 0.000000 -25.565170 -23.621155 8.501825 3.428311 8.789877 0.038851 0.000000 0.000000 0.000000 0.000000 0.000000 0.000000 
1.481365 84.673286 10.064713 -3.929445 6.097102 -0.104228 4.639043 -7.786234 1.534771 -0.812047 1.596709 0.414457 4.020224 7.970664 2.021160 -2.931216 7.884534 3.480783 3.795856 10.182810 -0.652047 -65.334061 31.518951 -25.076269 -13.588250 -12.383585 -3.772645 -0.889046 -0.965558 7.395263 -8.870997 -0.689088 -0.575930 72.400276 66.964966 11.543813 -9.235571 -23.445951 1.650189 3.999894 -23.108580 6.692369 7.589839 -0.938321 2.960980 -4.158624 15.205336 2.896908 11.348092 -22.500572 -4.099402 0.000000 0.000000 0.000000 -25.941370 -23.663383 7.953155 3.428311 8.789877 0.038851 0.000000 0.000000 0.000000 0.000000 0.000000 0.000000 
1.087057 84.464874 10.386566 -3.882269 6.103600 -0.042333 4.612645 -7.732752 1.458167 -0.718963 1.550556 0.388676 3.997036 7.897239 2.027278 -2.936290 7.778446 3.478176 3.754830 10.173550 -0.585710 -65.146889 31.687773 -25.181431 -13.369206 -15.301977 -3.787175 -1.631712 -0.870286 7.706860 -8.909330 -0.650357 -0.638455 71.753265 67.562477 12.131607 -9.378241 -23.728422 1.501689 4.011840 -23.402027 6.641934 7.856770 -0.964352 2.973995 -4.516744 15.787298 3.143166 11.555660 -23.456554 -4.143251 0.000000 0.000000 0.000000 -26.231405 -23.842207 7.373703 3.428311 8.789877 0.038851 0.000000 0.000000 0.000000 0.000000 0.000000 0.000000 
0.676832 84.255470 10.750368 -3.806676 6.007477 0.025080 4.579505 -7.699642 1.421489 -0.712889 1.636536 0.378195 4.093604 7.855141 2.022986 -2.958376 7.587673 3.491391 3.819933 10.241565 -0.653253 -65.059486 31.562849 -25.248049 -13.137423 -17.896221 -3.803785 -2.383682 -0.840714 7.900346 -8.867888 -0.587562 -0.742199 70.968819 68.146431 12.830779 -9.497743 -24.020002 1.367685 4.024253 -23.704039 6.592628 8.092086 -0.818801 2.965168 -4.849344 16.242157 3.404210 11.717834 -24.350885 -4.232279 0.000000 0.000000 0.000000 -26.519566 -23.882311 6.843194 3.428311 8.789877 0.038851 0.000000 0.000000 0.000000 0.000000 0.000000 0.000000 
0.245009 84.047989 11.126341 -3.736391 5.939766 0.103037 4.480137 -7.602278 1.303415 -0.548432 1.524656 0.339576 4.053720 7.967289 2.043402 -2.969311 7.319377 3.503728 3.715428 9.978282 -0.769341 -65.192131 31.704088 -24.738443 -12.890615 -20.037968 -3.829599 -3.057531 -0.772083 8.224519 -8.911686 -0.475543 -0.775374 70.192383 68.712372 13.520242 -9.586622 -24.279140 1.251413 4.023813 -23.973724 6.532065 8.360531 -0.680276 2.929534 -5.239744 16.640696 3.683482 11.907891 -25.202213 -4.304110 0.000000 0.000000 0.000000 -26.787045 -23.928421 6.304260 3.428311 8.789877 0.038851 0.000000 0.000000 0.000000 0.000000 0.000000 0.000000 
-0.228604 83.847427 11.539965 -3.686481 5.804474 0.289152 4.358879 -7.609610 1.195091 -0.408347 1.623063 0.304452 4.134899 7.950012 2.014663 -3.018694 7.184416 3.495984 3.742463 10.245096 -0.770558 -64.967262 31.419300 -25.072529 -12.684383 -22.898214 -3.833779 -3.774035 -1.079337 8.725390 -8.815278 -0.329994 -0.925916 69.121017 69.208153 14.428620 -9.640372 -24.520664 1.158598 4.013279 -24.225159 6.463204 8.687004 -0.455666 2.824027 -5.648738 16.964731 3.922779 12.077222 -25.990200 -4.398733 0.000000 0.000000 0.000000 -27.015718 -23.790470 5.890113 3.428311 8.789877 0.038851 0.000000 0.000000 0.000000 0.000000 0.000000 0.000000 
-0.698976 83.639755 11.918571 -3.608114 5.758996 0.296577 4.310873 -7.496744 1.153247 -0.296308 1.499421 0.291092 3.996211 8.021897 2.050718 -2.898235 6.957804 3.479066 3.682859 9.940176 -0.880018 -65.059547 31.740467 -24.635578 -12.431482 -24.945051 -3.822662 -4.227918 -0.870602 8.953753 -8.919341 -0.338581 -1.032005 68.594955 69.669502 14.944734 -9.645753 -24.681234 1.088941 3.965321 -24.396427 6.383275 8.954625 -0.291199 2.877125 -5.988980 17.260645 4.207966 12.179173 -26.791414 -4.544884 0.000000 0.000000 0.000000 -27.227163 -23.881344 5.561578 3.428311 8.789877 0.038851 0.000000 0.000000 0.000000 0.000000 0.000000 0.000000 
-1.150443 83.425003 12.197309 -3.547847 6.061191 0.718282 4.448522 -7.610310 0.894837 -0.539778 1.267030 0.202437 4.143504 7.980580 2.020974 -2.958141 6.798477 3.484202 3.782790 10.072356 -0.722132 -64.860374 31.689371 -24.946398 -12.186007 -27.233461 -3.769946 -4.831757 -1.019151 9.645089 -8.846162 -0.101433 -1.215692 67.301498 70.003395 16.227865 -9.616085 -24.825476 1.053917 3.901561 -24.549761 6.299256 9.207314 -0.714473 2.508785 -6.327117 17.676399 4.583929 12.296236 -27.622890 -4.686994 0.000000 0.000000 0.000000 -27.681116 -24.120253 4.599659 3.428311 8.789877 0.038851 0.000000 0.000000 0.000000 0.000000 0.000000 0.000000 
-1.726832 83.246017 12.782146 -3.471166 5.518120 0.493101 4.166110 -7.303747 0.975573 -0.127950 1.414118 0.235331 4.031026 8.007164 2.040819 -2.920309 6.691679 3.473027 3.602290 10.242129 -0.681630 -64.842278 31.509832 -24.918827 -14.715441 0.686661 -3.181801 3.507586 0.515700 7.828398 -8.935579 0.119311 -1.349657 66.145592 70.328697 17.347513 -9.535422 -24.941891 1.057158 3.817831 -24.673901 6.205441 9.577803 0.363927 2.784915 -6.711262 17.383953 4.768287 12.307356 -28.125469 -4.948881 0.000000 0.000000 0.000000 -27.559006 -23.697155 4.947051 3.428311 8.789877 0.038851 0.000000 0.000000 0.000000 0.000000 0.000000 0.000000 
-2.288435 83.069069 13.268053 -3.414261 5.349530 0.687102 4.047046 -7.333333 0.848633 0.011709 1.526691 0.193500 3.970982 8.039260 2.051096 -2.814436 6.497381 3.448166 3.659636 10.186085 -0.815936 -64.963432 31.503817 -24.741259 -14.670717 0.914652 -3.092153 3.595723 0.763846 7.863423 -8.882789 0.413566 -1.555415 64.668991 70.475510 18.752106 -9.383390 -24.998241 1.102012 3.704149 -24.737303 6.091044 9.905834 0.810832 2.641823 -6.973339 17.233822 5.064018 12.195485 -28.654457 -5.310449 0.000000 0.000000 0.000000 -27.675747 -23.400904 4.962475 3.428311 8.789877 0.038851 0.000000 0.000000 0.000000 0.000000 0.000000 0.000000 
-2.850253 82.890488 13.715290 -3.331231 5.218118 0.695023 4.112370 -7.224000 0.865817 -0.135386 1.559419 0.200794 4.173046 7.987966 2.018749 -3.001903 6.264548 3.482812 3.783225 10.117761 -0.869028 -64.939812 31.587297 -24.717388 -14.626764 1.007169 -2.952179 3.908076 0.895516 7.822944 -8.870951 0.533579 -1.824904 63.659126 70.548470 19.850346 -9.168205 -24.957876 1.186986 3.536390 -24.704002 5.972117 10.200169 1.293130 2.634828 -7.246556 16.942339 5.395304 12.084069 -29.127033 -5.688495 0.000000 0.000000 0.000000 -27.748825 -23.333210 4.796122 3.428311 8.789877 0.038851 0.000000 0.000000 0.000000 0.000000 0.000000 0.000000 
-3.456448 82.720139 14.211729 -3.234321 5.060794 0.820013 4.018266 -7.084415 0.764126 -0.055910 1.449801 0.169680 4.083196 7.943130 2.007902 -2.933039 6.293865 3.439888 3.739335 10.265099 -0.814928 -64.828430 31.473743 -24.739647 -14.641613 1.144227 -2.915553 3.943115 1.043014 7.928695 -8.918538 0.945521 -2.091836 62.261093 70.398827 21.362976 -8.878640 -24.826889 1.319144 3.323820 -24.579962 5.832201 10.530637 1.835287 2.527838 -7.559794 16.529110 5.681276 11.963749 -29.483665 -6.081301 0.000000 0.000000 0.000000 -27.823860 -23.121759 4.543365 3.428311 8.789877 0.038851 0.000000 0.000000 0.000000 0.000000 0.000000 0.000000 
-4.031375 82.549026 14.577240 -3.167858 5.357085 1.263756 4.089139 -7.207153 0.434171 -0.159678 1.145886 0.058046 4.036659 7.959665 2.027529 -2.955403 6.159804 3.452006 3.689923 10.245668 -0.715362 -64.790688 31.512976 -24.671326 -15.095136 3.013927 -2.251078 4.989192 2.964160 5.698238 -8.937552 1.332714 -2.335110 60.839867 70.162743 22.874920 -8.516316 -24.650581 1.502150 3.082580 -24.409819 5.673755 10.844718 1.640242 2.098815 -7.848333 16.336206 6.076405 11.853894 -29.915535 -6.448480 0.000000 0.000000 0.000000 -28.117142 -23.186192 4.104260 3.428311 8.789877 0.038851 0.000000 0.000000 0.000000 0.000000 0.000000 0.000000 
-4.746392 82.426537 15.264915 -3.081527 4.783808 1.113123 3.979240 -7.147303 0.553409 -0.147707 1.614543 0.101001 4.153495 7.862314 1.961228 -2.985059 6.183774 3.409745 3.718472 10.060624 -1.000378 -64.856819 31.408962 -24.165926 -14.926791 2.706833 -2.380506 5.040681 2.656782 5.941781 -8.800332 1.646953 -2.635936 59.766487 69.691017 24.049391 -8.058596 -24.360708 1.725074 2.783086 -24.127897 5.503683 11.268182 2.995042 2.284401 -8.112607 15.368230 6.206097 11.545739 -29.879454 -7.023088 0.000000 0.000000 0.000000 -27.834093 -22.511269 5.023877 3.428311 8.789877 0.038851 0.000000 0.000000 0.000000 0.000000 0.000000 0.000000 
-5.407285 82.289490 15.789310 -2.975583 4.712772 1.108429 3.993279 -7.135913 0.570259 -0.169348 1.585763 0.107072 4.105043 7.877694 2.040501 -3.076648 5.977237 3.493611 3.748889 10.086291 -0.997953 -64.857071 31.368973 -24.066826 -14.928879 2.718495 -2.341196 5.044832 2.673691 5.940918 -8.815029 2.094411 -3.027273 58.472790 69.109741 25.522739 -7.526762 -23.978935 1.998027 2.441509 -23.755306 5.302868 11.584825 3.587982 2.305080 -8.323800 14.651675 6.458096 11.250789 -29.958120 -7.558748 0.000000 0.000000 0.000000 -27.799908 -22.341219 5.522195 3.428311 8.789877 0.038851 0.000000 0.000000 0.000000 0.000000 0.000000 0.000000 
-6.111214 82.168777 16.331242 -2.865289 4.648171 1.227057 3.935383 -7.160936 0.511351 -0.129933 1.544275 0.087246 3.909470 7.771685 2.128667 -2.933863 6.013954 3.516592 3.768578 10.501575 -0.807322 -64.577858 31.029379 -24.572838 -15.007008 2.492168 -2.216817 4.768612 2.459186 6.214588 -8.852219 2.680108 -3.468730 57.138744 68.333794 27.106691 -6.908187 -23.512215 2.311169 2.056058 -23.300400 5.083693 11.948945 4.246647 2.214277 -8.570392 13.627557 6.661383 10.942104 -29.804005 -8.148890 0.000000 0.000000 0.000000 -27.765327 -22.020321 6.407648 3.428311 8.789877 0.038851 0.000000 0.000000 0.000000 0.000000 0.000000 0.000000 
-6.845857 82.045586 16.914492 -2.732558 4.541128 1.373626 4.006747 -7.210381 0.428820 -0.422987 1.632468 0.062911 4.162704 7.761736 2.050689 -3.253697 5.855202 3.540139 3.876402 10.617975 -0.700981 -64.304260 31.134609 -24.724674 -14.851201 1.838127 -2.329129 4.141354 1.782852 6.858770 -8.752633 3.193699 -3.962543 56.164673 67.403343 28.441767 -6.210154 -22.920635 2.645277 1.608681 -22.725380 4.862965 12.296474 4.885419 2.122154 -8.738218 12.793758 6.823043 10.528851 -29.682127 -8.760520 0.000000 0.000000 0.000000 -27.711077 -21.693388 6.553048 3.428311 8.789877 0.038851 0.000000 0.000000 0.000000 0.000000 0.000000 0.000000 
